<svg xmlns="http://www.w3.org/2000/svg" xmlns:xlink="http://www.w3.org/1999/xlink" width="500" zoomAndPan="magnify" viewBox="0 0 375 374.999991" height="500" preserveAspectRatio="xMidYMid meet" version="1.0"><defs><clipPath id="ddb401db4a"><path d="M 44.296875 51.441406 L 330.703125 51.441406 L 330.703125 337.84375 L 44.296875 337.84375 Z M 44.296875 51.441406 " clip-rule="nonzero"/></clipPath><clipPath id="fb61ae3c1b"><path d="M 187.5 337.84375 C 149.265625 337.84375 113.265625 322.964844 86.25 295.890625 C 59.179688 268.878906 44.296875 232.878906 44.296875 194.644531 C 44.296875 156.410156 59.179688 120.410156 86.25 93.394531 C 113.265625 66.324219 149.265625 51.441406 187.5 51.441406 C 225.734375 51.441406 261.734375 66.324219 288.75 93.394531 C 315.820312 120.46875 330.703125 156.410156 330.703125 194.644531 C 330.703125 232.878906 315.820312 268.878906 288.75 295.890625 C 261.734375 322.964844 225.734375 337.84375 187.5 337.84375 Z M 187.5 60.027344 C 151.554688 60.027344 117.730469 74.050781 92.320312 99.460938 C 66.90625 124.875 52.882812 158.699219 52.882812 194.644531 C 52.882812 230.585938 66.90625 264.414062 92.320312 289.824219 C 117.730469 315.238281 151.554688 329.261719 187.5 329.261719 C 223.445312 329.261719 257.269531 315.238281 282.679688 289.824219 C 308.09375 264.414062 322.117188 230.585938 322.117188 194.644531 C 322.117188 158.699219 308.09375 124.875 282.679688 99.460938 C 257.269531 74.050781 223.445312 60.027344 187.5 60.027344 Z M 187.5 60.027344 " clip-rule="nonzero"/></clipPath><clipPath id="4a77d1af40"><path d="M 108.910156 116.542969 L 266.410156 116.542969 L 266.410156 272.542969 L 108.910156 272.542969 Z M 108.910156 116.542969 " clip-rule="nonzero"/></clipPath></defs><rect x="-37.5" width="450" fill="#ffffff" y="-37.499999" height="449.999989" fill-opacity="1"/><g clip-path="url(#ddb401db4a)"><g clip-path="url(#fb61ae3c1b)"><path fill="#6241d3" d="M 44.296875 51.441406 L 330.703125 51.441406 L 330.703125 337.84375 L 44.296875 337.84375 Z M 44.296875 51.441406 " fill-opacity="1" fill-rule="nonzero"/></g></g><g clip-path="url(#4a77d1af40)"><path fill="#6241d3" d="M 208.710938 194.519531 L 265.882812 116.53125 L 259.78125 116.53125 L 145.285156 272.714844 L 151.386719 272.714844 L 187.496094 223.457031 L 223.601562 272.714844 L 266.023438 272.714844 Z M 189.652344 170.914062 L 190.53125 169.714844 L 151.546875 116.53125 L 109.125 116.53125 L 166.289062 194.519531 L 108.964844 272.714844 L 115.066406 272.714844 L 189.679688 170.933594 Z M 189.652344 170.914062 " fill-opacity="1" fill-rule="nonzero"/></g></svg>