<svg width="115" height="22" viewBox="0 0 115 22" fill="none" xmlns="http://www.w3.org/2000/svg">
<path d="M0.302734 2.22729H4.3916V6.00101H8.48047V9.37069H4.3916V15.5121C4.3916 17.5565 5.84614 18.6474 8.43199 17.702C8.65999 18.2739 8.9557 18.8165 9.31279 19.3181C9.66797 19.8053 10.0568 20.267 10.4764 20.6999C9.22502 21.4224 7.80821 21.8093 6.36331 21.8232C4.24615 21.8232 0.302734 21.1363 0.302734 15.3585V2.22729Z" fill="black"/>
<path d="M13.3373 11.8676C13.5766 11.0359 14.0828 10.3061 14.7779 9.79062C15.473 9.27513 16.3184 9.00261 17.1837 9.01508C18.0306 9.00863 18.8553 9.28606 19.5261 9.80309C20.1969 10.3201 20.6752 11.0469 20.8847 11.8676H13.3373ZM20.917 16.2958C20.551 16.9353 20.0193 17.4642 19.3779 17.8268C18.7365 18.1895 18.0092 18.3724 17.2726 18.3564C16.2799 18.3364 15.3271 17.9622 14.5862 17.3013C13.8453 16.6404 13.365 15.7364 13.2322 14.7524H24.9332C25.0435 13.1165 24.7666 11.4775 24.1251 9.96861C23.5246 8.61971 22.5396 7.47785 21.2935 6.68588C20.0473 5.89392 18.5953 5.48702 17.1191 5.51611C16.0608 5.51794 15.0135 5.73124 14.0388 6.14347C13.064 6.55569 12.1815 7.15854 11.443 7.91659C10.7046 8.67465 10.125 9.57263 9.73841 10.5578C9.35182 11.543 9.16598 12.5954 9.19182 13.6534C9.19182 18.5019 12.6908 21.7908 17.0706 21.7908C20.6908 21.7908 23.4544 19.8433 24.4645 17.0878L20.917 16.2958Z" fill="black"/>
<path d="M26.4512 6.00897V21.3624H30.4027V16.1099C30.4027 10.7847 33.4895 9.35441 36.1158 9.35441V6.01705C36.1158 6.01705 32.3097 5.7019 30.4027 8.89381V6.00897H26.4512Z" fill="black"/>
<path d="M43.5752 6.00098C46.4358 6.00098 48.5448 6.80905 49.5792 8.53834C50.1048 9.5314 50.3506 10.6487 50.2903 11.7706V21.3544H46.46V20.1019C45.0929 21.2603 43.3462 21.8733 41.555 21.8231C39.3247 21.8231 35.8984 20.6595 35.8984 16.7726C35.8984 12.8858 39.4378 11.8757 42.3631 11.8757H46.4762C46.508 11.536 46.464 11.1934 46.3473 10.8728C46.2305 10.5522 46.044 10.2615 45.8012 10.0218C45.5584 9.78206 45.2654 9.59929 44.9433 9.48669C44.6212 9.37408 44.2781 9.33445 43.9388 9.37066H38.2015V6.00098H43.5752ZM46.4358 14.9464H41.8378C40.2216 14.9464 39.7368 15.9484 39.7368 16.6676C39.7368 17.3868 40.2701 18.5908 42.258 18.5908C44.3752 18.5908 46.4358 17.3706 46.4358 14.9464Z" fill="black"/>
<path d="M77.3759 6.00098C80.2365 6.00098 82.3456 6.80905 83.38 8.53834C83.9095 9.52996 84.1555 10.6483 84.0911 11.7706V21.3544H80.3012V20.1019C78.9236 21.2698 77.1608 21.8833 75.3558 21.8231C73.1255 21.8231 69.6992 20.6595 69.6992 16.7726C69.6992 12.8858 73.2386 11.8757 76.1638 11.8757H80.3012C80.3311 11.5361 80.285 11.194 80.1662 10.8744C80.0474 10.5548 79.8588 10.2657 79.6143 10.0282C79.3697 9.79058 79.0753 9.61047 78.7524 9.50092C78.4295 9.39138 78.0863 9.35516 77.7477 9.3949H72.0022V6.00098H77.3759ZM80.2446 14.9464H75.6467C74.0305 14.9464 73.5376 15.9484 73.5376 16.6676C73.5376 17.3868 74.0709 18.5908 76.0588 18.5908C78.1759 18.5908 80.2446 17.3706 80.2446 14.9464Z" fill="black"/>
<path d="M101.474 6.00098C104.334 6.00098 106.443 6.80905 107.478 8.53834C108.007 9.52996 108.253 10.6483 108.189 11.7706V21.3544H104.358V20.1019C102.991 21.2603 101.245 21.8733 99.4534 21.8231C97.2231 21.8231 93.7969 20.6595 93.7969 16.7726C93.7969 12.8858 97.3363 11.8757 100.261 11.8757H104.375C104.405 11.5361 104.358 11.194 104.24 10.8744C104.121 10.5548 103.932 10.2657 103.688 10.0282C103.443 9.79058 103.149 9.61047 102.826 9.50092C102.503 9.39138 102.16 9.35516 101.821 9.3949H96.1161V6.00098H101.474ZM104.342 14.9464H99.7443C98.1282 14.9464 97.6352 15.9484 97.6352 16.6676C97.6352 17.3868 98.1686 18.5746 100.156 18.5746C102.274 18.5908 104.342 17.3706 104.342 14.9464Z" fill="black"/>
<path d="M64.3507 0.00500488V7.32618C63.0111 6.14874 61.2856 5.50455 59.5022 5.51609C55.3083 5.51609 51.7285 8.74839 51.7285 13.5969C51.7528 18.7039 55.3325 21.8231 59.5265 21.8231C61.3131 21.8279 63.0389 21.175 64.3749 19.9887V21.3544H68.4153V0.00500488H64.3507ZM59.9547 18.2918C57.579 18.2918 55.6234 16.6756 55.6234 13.6453C55.5809 13.0531 55.6617 12.4586 55.8608 11.8992C56.0599 11.3399 56.3729 10.8279 56.78 10.3958C57.1871 9.9636 57.6794 9.62063 58.2259 9.38853C58.7724 9.15643 59.3611 9.04027 59.9547 9.04738C60.5448 9.06102 61.1264 9.19078 61.6663 9.42926C62.2062 9.66774 62.6938 10.0103 63.1013 10.4373C63.5088 10.8642 63.8281 11.3673 64.0411 11.9178C64.2541 12.4683 64.3566 13.0553 64.3426 13.6453C64.3598 14.2386 64.26 14.8294 64.0487 15.3841C63.8375 15.9387 63.519 16.4463 63.1115 16.8778C62.704 17.3094 62.2155 17.6563 61.6738 17.8989C61.1322 18.1416 60.548 18.275 59.9547 18.2918Z" fill="black"/>
<path d="M93.0054 19.706C92.738 19.1783 92.5475 18.615 92.4397 18.0333C90.7266 18.1949 89.765 17.1686 89.765 15.5121V9.37069H93.9912V6.00101H89.765V2.22729H85.7246V15.3585C85.7246 21.1282 89.6599 21.8232 91.7771 21.8232C92.668 21.8166 93.5521 21.6666 94.3953 21.3787C93.8281 20.9163 93.3561 20.3482 93.0054 19.706Z" fill="black"/>
<path d="M112.318 21.5726C113.799 21.5726 115 20.4148 115 18.9867C115 17.5586 113.799 16.4009 112.318 16.4009C110.836 16.4009 109.635 17.5586 109.635 18.9867C109.635 20.4148 110.836 21.5726 112.318 21.5726Z" fill="black"/>
</svg>
